<svg width="22" height="22" viewBox="0 0 22 22" fill="none" xmlns="http://www.w3.org/2000/svg">
<path d="M14 4.00001L18 8.00001M20.174 5.81201C20.7027 5.28344 20.9998 4.56648 20.9999 3.81887C21 3.07125 20.7031 2.35422 20.1745 1.82551C19.6459 1.29681 18.929 0.999728 18.1813 0.999634C17.4337 0.99954 16.7167 1.29644 16.188 1.82501L2.842 15.174C2.60981 15.4055 2.43811 15.6905 2.342 16.004L1.021 20.356C0.995151 20.4425 0.993199 20.5344 1.01535 20.6219C1.03749 20.7094 1.08292 20.7892 1.14679 20.853C1.21067 20.9168 1.29062 20.9621 1.37815 20.9841C1.46569 21.0061 1.55755 21.004 1.644 20.978L5.997 19.658C6.31017 19.5628 6.59517 19.3921 6.827 19.161L20.174 5.81201Z" stroke="white" stroke-width="2" stroke-linecap="round" stroke-linejoin="round"/>
</svg>
