<svg width="32" height="29" viewBox="0 0 32 29" fill="none" xmlns="http://www.w3.org/2000/svg">
<path d="M5.5 9.10155L20.312 2.13492C20.4799 2.05588 20.6622 2.01057 20.8481 2.00164C21.034 1.99271 21.2199 2.02033 21.3949 2.08289C21.5698 2.14546 21.7303 2.2417 21.867 2.366C22.0036 2.4903 22.1137 2.64016 22.1908 2.8068L25.1 9.10155M7.6 11.8552V9.10155M7.6 17.3624V18.7392M7.6 24.2464V27M4.8 9.10155H27.2C28.7464 9.10155 30 10.3344 30 11.8552V24.2464C30 25.7672 28.7464 27 27.2 27H4.8C3.2536 27 2 25.7672 2 24.2464V11.8552C2 10.3344 3.2536 9.10155 4.8 9.10155Z" stroke="#EFF0F8" stroke-width="3" stroke-linecap="round" stroke-linejoin="round"/>
</svg>
